<svg xmlns="http://www.w3.org/2000/svg" viewBox="-237 361 65 65">
  <path fill="#1a1a2e" d="M-176.6,419.8h-56.6c-1.1,0-2,0.9-2,2c0,1.1,0.9,2,2,2h56.6c1.1,0,2-0.9,2-2C-174.6,420.7-175.5,419.8-176.6,419.8z"/>
  <path fill="#1a1a2e" d="M-182,388.9h-3.5v-4.6h-36.6V400c0,8.7,7.1,15.8,15.8,15.8h5c7.2,0,13.3-4.9,15.2-11.5h4.1c4.1,0,7.5-3.3,7.5-7.5v-0.5 C-174.6,392.2-177.9,388.9-182,388.9z M-201.3,411.8h-5c-6.5,0-11.8-5.3-11.8-11.8v-11.8h28.6V400 C-189.5,406.6-194.8,411.8-201.3,411.8z M-178.6,396.9c0,1.9-1.6,3.5-3.5,3.5h-3.5V400v-7.2h3.5c1.9,0,3.5,1.6,3.5,3.5V396.9z"/>
  <path fill="#1a1a2e" d="M-210.7,380.1c1.1,0,2-0.9,2-2v-5c0-1.1-0.9-2-2-2s-2,0.9-2,2v5C-212.7,379.2-211.8,380.1-210.7,380.1z"/>
  <path fill="#1a1a2e" d="M-198,378.4c1.1,0,2-0.9,2-2V365c0-1.1-0.9-2-2-2s-2,0.9-2,2v11.4C-200,377.5-199.1,378.4-198,378.4z"/>
</svg>
