<svg version="1.0" xmlns="http://www.w3.org/2000/svg" xmlns:xlink="http://www.w3.org/1999/xlink" viewBox="56 95 228 62" preserveAspectRatio="xMidYMid meet" color-interpolation-filters="sRGB">
  <g fill="#feffff" transform="translate(58.25,96.96221733093262)">
    <g data-gra="graph-icon-name">
      <g transform="translate(0,0)">
        <g data-gra="graph-icon" transform="translate(167.5,0)">
          <g transform="translate(5,5)">
            <g class="iconsvg-imagesvg">
              <g>
                <svg filter="url(#colors-dark)" x="0" y="0" width="46" height="46.07556392483673" style="overflow: visible;">
                  <svg xmlns="http://www.w3.org/2000/svg" viewBox="-235.20001220703125 363 60.70001220703125 60.79998779296875">
                    <path d="M-176.6,419.8h-56.6c-1.1,0-2,0.9-2,2c0,1.1,0.9,2,2,2h56.6c1.1,0,2-0.9,2-2C-174.6,420.7-175.5,419.8-176.6,419.8z"/>
                    <path d="M-182,388.9h-3.5v-4.6h-36.6V400c0,8.7,7.1,15.8,15.8,15.8h5c7.2,0,13.3-4.9,15.2-11.5h4.1c4.1,0,7.5-3.3,7.5-7.5v-0.5 C-174.6,392.2-177.9,388.9-182,388.9z M-201.3,411.8h-5c-6.5,0-11.8-5.3-11.8-11.8v-11.8h28.6V400 C-189.5,406.6-194.8,411.8-201.3,411.8z M-178.6,396.9c0,1.9-1.6,3.5-3.5,3.5h-3.5V400v-7.2h3.5c1.9,0,3.5,1.6,3.5,3.5V396.9z"/>
                    <path d="M-210.7,380.1c1.1,0,2-0.9,2-2v-5c0-1.1-0.9-2-2-2s-2,0.9-2,2v5C-212.7,379.2-211.8,380.1-210.7,380.1z"/>
                    <path d="M-198,378.4c1.1,0,2-0.9,2-2V365c0-1.1-0.9-2-2-2s-2,0.9-2,2v11.4C-200,377.5-199.1,378.4-198,378.4z"/>
                  </svg>
                </svg>
                <defs>
                  <filter id="colors-dark">
                    <feColorMatrix type="matrix" values="0 0 0 0 0.996 0 0 0 0 0.996 0 0 0 0 0.996 0 0 0 1 0"/>
                  </filter>
                </defs>
              </g>
            </g>
          </g>
        </g>
        <g data-gra="graph-name" transform="translate(0,0)">
          <g transform="translate(5,6.6477813720703125)">
            <g data-gra="path-name" class="tp-name">
              <g transform="scale(1)">
                <g>
                  <path d="M29.4-30L29.4-30 14.4-15 29.4 0 19.26 0 9.3-9.96 9.3 0 2.1 0 2.1-42 9.3-42 9.3-20.1 19.2-30 29.4-30ZM39-27.72L39-27.72Q40.68-29.1 42.81-30 44.94-30.9 47.64-30.9L47.64-30.9 47.64-23.7Q44.04-23.7 41.52-21.18L41.52-21.18Q39-18.54 39-15.06L39-15.06 39 0 31.8 0 31.8-15.06 31.8-30.06 39-30.06 39-27.72ZM79.44-11.4L71.88-11.4 56.16-11.4Q56.76-10.02 57.9-8.94L57.9-8.94Q59.16-7.68 60.72-7.05 62.28-6.42 64.02-6.42L64.02-6.42Q66.48-6.42 68.4-7.56L68.4-7.56 75.9-4.56Q73.74-2.04 70.68-0.63 67.62 0.78 64.02 0.78L64.02 0.78Q60.72 0.78 57.84-0.45 54.96-1.68 52.8-3.84 50.64-6 49.41-8.88 48.18-11.76 48.18-15L48.18-15Q48.18-18.3 49.41-21.18 50.64-24.06 52.8-26.22 54.96-28.38 57.84-29.61 60.72-30.84 64.02-30.84L64.02-30.84Q67.32-30.84 70.2-29.61 73.08-28.38 75.24-26.22 77.4-24.06 78.63-21.18 79.86-18.3 79.86-15L79.86-15Q79.86-13.08 79.44-11.4L79.44-11.4ZM64.02-23.64L64.02-23.64Q60.54-23.64 57.9-21.12L57.9-21.12Q56.76-19.98 56.16-18.6L56.16-18.6 71.88-18.6Q71.28-19.98 70.14-21.12L70.14-21.12Q67.62-23.64 64.02-23.64ZM115.02-30.84L115.02-30.84Q117.54-30.84 119.43-29.88 121.32-28.92 122.52-27.24 123.72-25.56 124.32-23.34 124.92-21.12 124.92-18.54L124.92-18.54 124.92 0 117.72 0 117.72-18.54Q117.72-20.64 116.22-22.14L116.22-22.14Q114.78-23.64 112.62-23.64L112.62-23.64Q110.46-23.64 109.02-22.14L109.02-22.14Q107.52-20.64 107.52-18.54L107.52-18.54 107.52 0 100.32 0 100.32-18.54Q100.32-20.64 98.82-22.14L98.82-22.14Q98.1-22.92 97.17-23.28 96.24-23.64 95.22-23.64L95.22-23.64Q93-23.64 91.56-22.14L91.56-22.14Q90.06-20.64 90.06-18.54L90.06-18.54 90.06 0 82.86 0 82.86-30 90.06-30 90.06-27.36Q91.8-28.86 93.72-29.85 95.64-30.84 97.62-30.84L97.62-30.84Q100.32-30.84 102.06-29.76 103.8-28.68 105.18-26.76L105.18-26.76Q106.8-28.5 109.38-29.67 111.96-30.84 115.02-30.84ZM152.4-30.06L159.6-30.06 159.6 0 152.4 0 152.4-15Q152.4-18.6 149.88-21.12L149.88-21.12Q147.36-23.64 143.76-23.64L143.76-23.64Q142.02-23.64 140.43-22.98 138.84-22.32 137.64-21.12L137.64-21.12Q135.12-18.6 135.12-15L135.12-15Q135.12-11.46 137.64-8.94L137.64-8.94Q138.84-7.68 140.43-7.05 142.02-6.42 143.76-6.42L143.76-6.42Q145.56-6.42 147-7.02L147-7.02 149.58-0.6Q146.82 0.78 143.16 0.78L143.16 0.78Q139.86 0.78 137.07-0.45 134.28-1.68 132.24-3.84 130.2-6 129.06-8.88 127.92-11.76 127.92-15L127.92-15Q127.92-18.3 129.06-21.18 130.2-24.06 132.24-26.22 134.28-28.38 137.07-29.61 139.86-30.84 143.16-30.84L143.16-30.84Q146.1-30.84 148.38-29.94 150.66-29.04 152.4-27.66L152.4-27.66 152.4-30.06Z" transform="translate(-2.0999999046325684, 42)"/>
                </g>
              </g>
            </g>
          </g>
        </g>
      </g>
    </g>
  </g>
</svg>
